# xmcd
#
# Track frame offsets:
#	151
#	17400
#	48675
#	79514
#	95731
#
# Disc length: 1492 seconds
#
# Revision: 0
# Processed by: cddbd v1.5.1PL0 Copyright (c) Steve Scherf et al.
# Submitted via: EasyCDDAExtractor 7.1.3.1
#
DISCID=3305d205
DTITLE=Oscar De La Hoya - Run To Me
DYEAR=1900
DGENRE=
TTITLE0=Run To Me(Eddie's Dance Radio Edit-Eddie 'Love' Arroyo Mix)
TTITLE1=Run To Me(Eddie's Extended Dance Mix-Eddie 'Love' Arroyo Mix)
TTITLE2=Run To Me(Eddie's Dance Instrumental Mix-Eddie 'Love' Arroyo Mix)
TTITLE3=Run To Me(Eddie's Dance Tropical Mix-Eddie 'Love' Arroyo Mix)
TTITLE4=Run To Me(Eddie's Crossover Tropical Instrumental Mix-Eddie 'Love' Arr
TTITLE4=oyo Mix)
EXTD=
EXTT0=
EXTT1=
EXTT2=
EXTT3=
EXTT4=
PLAYORDER=
